#N canvas 90 98 632 443 10;
#X floatatom 256 383 5 0 0 0 - - -;
#X obj 225 199 bng 15 250 50 0 empty empty empty 17 7 0 10 -262144
-1 -1;
#X obj 278 198 bng 15 250 50 0 empty empty empty 17 7 0 10 -262144
-1 -1;
#X obj 183 199 bng 15 250 50 0 empty empty empty 17 7 0 10 -262144
-1 -1;
#X obj 148 199 bng 15 250 50 0 empty empty empty 17 7 0 10 -262144
-1 -1;
#X obj 101 199 bng 15 250 50 0 empty empty empty 17 7 0 10 -262144
-1 -1;
#X obj 54 199 bng 15 250 50 0 empty empty empty 17 7 0 10 -262144 -1
-1;
#X obj 327 199 bng 15 250 50 0 empty empty empty 17 7 0 10 -262144
-1 -1;
#X text 276 210 LA;
#X text 56 212 DO;
#X text 103 210 RE;
#X text 151 210 MI;
#X text 184 212 FA;
#X text 223 211 SOL;
#X text 330 210 SI;
#X obj 369 198 bng 15 250 50 0 empty empty empty 17 7 0 10 -262144
-1 -1;
#X floatatom 94 61 5 0 0 0 - - -;
#X obj 80 171 bng 15 250 50 0 empty empty empty 17 7 0 10 -1 -262144
-1;
#X obj 123 171 bng 15 250 50 0 empty empty empty 17 7 0 10 -1 -262144
-1;
#X obj 205 169 bng 15 250 50 0 empty empty empty 17 7 0 10 -1 -262144
-1;
#X obj 249 169 bng 15 250 50 0 empty empty empty 17 7 0 10 -1 -262144
-1;
#X obj 301 168 bng 15 250 50 0 empty empty empty 17 7 0 10 -1 -262144
-1;
#X obj 412 198 bng 15 250 50 0 empty empty empty 17 7 0 10 -262144
-1 -1;
#X obj 392 167 bng 15 250 50 0 empty empty empty 17 7 0 10 -1 -262144
-1;
#X obj 451 198 bng 15 250 50 0 empty empty empty 17 7 0 10 -262144
-1 -1;
#X obj 433 167 bng 15 250 50 0 empty empty empty 17 7 0 10 -1 -262144
-1;
#X obj 94 90 route 113 122 115 101 100 102 116 103 121 104 117 106
107 111 108 112 109;
#X floatatom 556 367 5 0 0 0 - - -;
#X obj 556 120 bng 15 250 50 0 empty empty empty 17 7 0 10 -204786
-258113 -1;
#X text 458 382 fausse note (ou arret);
#X msg 278 298 69;
#X msg 297 268 70;
#X msg 322 300 71;
#X msg 363 300 72;
#X msg 384 268 73;
#X msg 407 300 74;
#X msg 432 268 75;
#X msg 453 301 76;
#X msg 250 268 68;
#X msg 229 299 67;
#X msg 203 268 66;
#X msg 186 299 65;
#X msg 148 299 64;
#X msg 123 268 63;
#X msg 103 299 62;
#X msg 74 268 61;
#X msg 54 297 60;
#X obj 94 12 inlet;
#X obj 256 420 outlet;
#X connect 0 0 48 0;
#X connect 1 0 39 0;
#X connect 2 0 30 0;
#X connect 3 0 41 0;
#X connect 4 0 42 0;
#X connect 5 0 44 0;
#X connect 6 0 46 0;
#X connect 7 0 32 0;
#X connect 15 0 33 0;
#X connect 16 0 26 0;
#X connect 17 0 45 0;
#X connect 18 0 43 0;
#X connect 19 0 40 0;
#X connect 20 0 38 0;
#X connect 21 0 31 0;
#X connect 22 0 35 0;
#X connect 23 0 34 0;
#X connect 24 0 37 0;
#X connect 25 0 36 0;
#X connect 26 0 6 0;
#X connect 26 1 17 0;
#X connect 26 2 5 0;
#X connect 26 3 18 0;
#X connect 26 4 4 0;
#X connect 26 5 3 0;
#X connect 26 6 19 0;
#X connect 26 7 1 0;
#X connect 26 8 20 0;
#X connect 26 9 2 0;
#X connect 26 10 21 0;
#X connect 26 11 7 0;
#X connect 26 12 15 0;
#X connect 26 13 23 0;
#X connect 26 14 22 0;
#X connect 26 15 25 0;
#X connect 26 16 24 0;
#X connect 26 17 28 0;
#X connect 27 0 0 0;
#X connect 28 0 27 0;
#X connect 30 0 0 0;
#X connect 31 0 0 0;
#X connect 32 0 0 0;
#X connect 33 0 0 0;
#X connect 34 0 0 0;
#X connect 35 0 0 0;
#X connect 36 0 0 0;
#X connect 37 0 0 0;
#X connect 38 0 0 0;
#X connect 39 0 0 0;
#X connect 40 0 0 0;
#X connect 41 0 0 0;
#X connect 42 0 0 0;
#X connect 43 0 0 0;
#X connect 44 0 0 0;
#X connect 45 0 0 0;
#X connect 46 0 0 0;
#X connect 47 0 16 0;
