#N canvas 0 26 736 553 10;
#X obj 294 84 osc~;
#X obj 308 114 vsl 15 128 1 10 0 0 empty empty empty 0 -9 0 10 -258113
-1 -1 0 1;
#X obj 379 81 osc~;
#X obj 398 112 vsl 15 128 1 10 0 0 empty empty empty 0 -9 0 10 -260097
-1 -1 0 1;
#X obj 293 303 +~;
#X obj 505 481 /~;
#X floatatom 425 242 5 0 0 0 - - -;
#X obj 689 287 +;
#X floatatom 689 310 5 0 0 0 - - -;
#X obj 477 87 osc~;
#X obj 497 111 vsl 15 128 1 10 0 0 empty empty empty 0 -9 0 10 -257985
-1 -1 0 1;
#X floatatom 521 242 5 0 0 0 - - -;
#X obj 674 332 +;
#X floatatom 674 360 5 0 0 0 - - -;
#X obj 570 88 osc~;
#X obj 589 109 vsl 15 128 1 10 0 0 empty empty empty 0 -9 0 10 -4034
-1 -1 0 1;
#X floatatom 612 246 5 0 0 0 - - -;
#X obj 294 331 +~;
#X obj 294 357 +~;
#X obj 659 388 +;
#X floatatom 659 414 5 0 0 0 - - -;
#X obj 652 83 osc~;
#X obj 670 110 vsl 15 128 1 10 0 0 empty empty empty 0 -9 0 10 -4160
-1 -1 0 1;
#X floatatom 704 241 5 0 0 0 - - -;
#X obj 294 392 +~;
#X obj 644 439 +;
#X floatatom 644 465 5 0 0 0 - - -;
#X text 291 -9 synthetiseur;
#X floatatom 477 21 5 0 0 0 - - -;
#X obj 293 250 *~;
#X obj 474 252 *~;
#X obj 570 249 *~;
#X obj 651 246 *~;
#X obj 380 249 *~;
#X obj 294 57 * 1;
#X obj 379 56 * 2;
#X obj 477 57 * 3;
#X obj 504 511 outlet~;
#X obj 570 61 * 4;
#X obj 652 57 * 5;
#X obj 477 -8 inlet;
#X obj 691 -13 inlet;
#X msg 333 111 7;
#X msg 422 111 5;
#X msg 517 111 4;
#X msg 609 111 6;
#X msg 691 111 4;
#X text 638 6 placer harmonique automatiquement;
#X connect 0 0 29 0;
#X connect 1 0 29 1;
#X connect 1 0 25 0;
#X connect 2 0 33 0;
#X connect 3 0 6 0;
#X connect 3 0 33 1;
#X connect 4 0 17 0;
#X connect 5 0 37 0;
#X connect 6 0 19 0;
#X connect 7 0 8 0;
#X connect 8 0 12 1;
#X connect 9 0 30 0;
#X connect 10 0 11 0;
#X connect 10 0 30 1;
#X connect 11 0 12 0;
#X connect 12 0 13 0;
#X connect 13 0 19 1;
#X connect 14 0 31 0;
#X connect 15 0 16 0;
#X connect 15 0 31 1;
#X connect 16 0 7 0;
#X connect 17 0 18 0;
#X connect 18 0 24 0;
#X connect 19 0 20 0;
#X connect 20 0 25 1;
#X connect 21 0 32 0;
#X connect 22 0 23 0;
#X connect 22 0 32 1;
#X connect 23 0 7 1;
#X connect 24 0 5 0;
#X connect 25 0 26 0;
#X connect 26 0 5 1;
#X connect 28 0 35 0;
#X connect 28 0 36 0;
#X connect 28 0 34 0;
#X connect 28 0 38 0;
#X connect 28 0 39 0;
#X connect 29 0 4 0;
#X connect 30 0 17 0;
#X connect 31 0 18 0;
#X connect 32 0 24 0;
#X connect 33 0 4 0;
#X connect 34 0 0 0;
#X connect 35 0 2 0;
#X connect 36 0 9 0;
#X connect 38 0 14 0;
#X connect 39 0 21 0;
#X connect 40 0 28 0;
#X connect 41 0 42 0;
#X connect 41 0 43 0;
#X connect 41 0 44 0;
#X connect 41 0 45 0;
#X connect 41 0 46 0;
#X connect 42 0 1 0;
#X connect 43 0 3 0;
#X connect 44 0 10 0;
#X connect 45 0 15 0;
#X connect 46 0 22 0;
